<svg xmlns="http://www.w3.org/2000/svg" viewBox="32 125 950 258">
  <defs>
    <style>
      .cls-1 { fill: #03a9f4; }
      .cls-2 { fill: #ffffff; }
      .cls-3 { fill: #fff; }
    </style>
  </defs>
  <g>
    <rect class="cls-1" x="125.91" y="265.4" width="215.25" height="105.61" rx="52.73" ry="52.73"/>
    <circle class="cls-3" cx="285.95" cy="318.2" r="37.84"/>
  </g>
  <g>
    <path class="cls-2" d="M79.4,364.04c-6.47,0-12.43-1.14-17.86-3.43-5.44-2.28-10.14-5.52-14.11-9.71-3.97-4.18-7.05-9.12-9.25-14.82-2.2-5.7-3.3-11.91-3.3-18.64s1.1-12.75,3.3-18.31c2.2-5.57,5.33-10.44,9.38-14.63,4.05-4.18,8.76-7.4,14.11-9.64,5.35-2.24,11.22-3.36,17.6-3.36,4.23,0,8.41.67,12.56,2.01,4.14,1.34,7.96,3.17,11.46,5.5,3.49,2.33,6.36,5.01,8.61,8.03l-6.99,7.25c-2.16-2.59-4.64-4.83-7.44-6.73-2.8-1.9-5.76-3.36-8.87-4.4-3.11-1.04-6.21-1.55-9.32-1.55-4.83,0-9.34.89-13.53,2.65-4.19,1.77-7.79,4.25-10.81,7.44-3.02,3.19-5.37,6.99-7.05,11.39-1.68,4.4-2.52,9.19-2.52,14.37s.84,10.27,2.52,14.76c1.68,4.49,4.1,8.35,7.25,11.58,3.15,3.24,6.86,5.74,11.13,7.51,4.27,1.77,9.04,2.65,14.3,2.65,3.11,0,6.21-.45,9.32-1.36,3.11-.91,5.95-2.18,8.54-3.82,2.59-1.64,4.79-3.5,6.6-5.57l5.18,8.41c-1.99,2.42-4.64,4.55-7.96,6.41-3.32,1.86-6.97,3.32-10.94,4.4-3.97,1.08-7.94,1.62-11.91,1.62Z"/>
    <path class="cls-1" d="M360.79,362.74v-90.61h9.19l59.28,78.44-1.81,2.33c-.26-1.38-.45-3.45-.58-6.21-.13-2.76-.26-5.89-.39-9.38-.13-3.5-.24-7.14-.32-10.94-.09-3.8-.15-7.51-.19-11.13-.04-3.62-.06-6.9-.06-9.84v-33.27h10.1v90.61h-9.45l-59.02-77.4,1.55-2.72c.26,3.45.5,6.86.71,10.22.21,3.37.39,6.6.52,9.71.13,3.11.24,5.96.32,8.54.09,2.59.15,4.79.19,6.6.04,1.81.06,3.11.06,3.88v41.16h-10.1Z"/>
    <path class="cls-2" d="M462.66,362.74v-90.61h9.19l59.28,78.44-1.81,2.33c-.26-1.38-.45-3.45-.58-6.21-.13-2.76-.26-5.89-.39-9.38-.13-3.5-.24-7.14-.32-10.94-.09-3.8-.15-7.51-.19-11.13-.04-3.62-.06-6.9-.06-9.84v-33.27h10.1v90.61h-9.45l-59.02-77.4,1.55-2.72c.26,3.45.5,6.86.71,10.22.21,3.37.39,6.6.52,9.71.13,3.11.24,5.96.32,8.54.09,2.59.15,4.79.19,6.6.04,1.81.06,3.11.06,3.88v41.16h-10.1Z"/>
    <path class="cls-2" d="M564.52,362.74v-90.61h54.88v9.84h-44.79v70.93h44.53v9.84h-54.62ZM569.18,321.07v-9.84h42.97v9.84h-42.97Z"/>
    <path class="cls-2" d="M679.59,364.04c-6.47,0-12.43-1.14-17.86-3.43-5.44-2.28-10.14-5.52-14.11-9.71-3.97-4.18-7.05-9.12-9.25-14.82-2.2-5.7-3.3-11.91-3.3-18.64s1.1-12.75,3.3-18.31c2.2-5.57,5.33-10.44,9.38-14.63,4.05-4.18,8.76-7.4,14.11-9.64,5.35-2.24,11.22-3.36,17.6-3.36,4.23,0,8.41.67,12.56,2.01,4.14,1.34,7.96,3.17,11.46,5.5,3.49,2.33,6.36,5.01,8.61,8.03l-6.99,7.25c-2.16-2.59-4.64-4.83-7.44-6.73-2.8-1.9-5.76-3.36-8.87-4.4-3.11-1.04-6.21-1.55-9.32-1.55-4.83,0-9.34.89-13.53,2.65-4.19,1.77-7.79,4.25-10.81,7.44-3.02,3.19-5.37,6.99-7.05,11.39-1.68,4.4-2.52,9.19-2.52,14.37s.84,10.27,2.52,14.76c1.68,4.49,4.1,8.35,7.25,11.58,3.15,3.24,6.86,5.74,11.13,7.51,4.27,1.77,9.04,2.65,14.3,2.65,3.11,0,6.21-.45,9.32-1.36,3.11-.91,5.95-2.18,8.54-3.82,2.59-1.64,4.79-3.5,6.6-5.57l5.18,8.41c-1.99,2.42-4.64,4.55-7.96,6.41-3.32,1.86-6.97,3.32-10.94,4.4-3.97,1.08-7.94,1.62-11.91,1.62Z"/>
    <path class="cls-2" d="M745.99,362.74v-80.77h-25.89v-9.84h62.91v9.84h-26.92v80.77h-10.1Z"/>
    <path class="cls-2" d="M833.62,364.04c-6.39,0-12.28-1.14-17.67-3.43-5.39-2.28-10.1-5.5-14.11-9.64-4.01-4.14-7.12-9.04-9.32-14.69-2.2-5.65-3.3-11.84-3.3-18.58s1.1-12.92,3.3-18.57c2.2-5.65,5.31-10.57,9.32-14.76,4.01-4.18,8.71-7.42,14.11-9.71,5.39-2.29,11.28-3.43,17.67-3.43s12.4,1.14,17.8,3.43c5.39,2.29,10.1,5.52,14.11,9.71,4.01,4.19,7.12,9.11,9.32,14.76,2.2,5.65,3.3,11.84,3.3,18.57s-1.1,12.8-3.3,18.45c-2.2,5.65-5.31,10.57-9.32,14.75-4.01,4.19-8.72,7.42-14.11,9.71-5.39,2.29-11.33,3.43-17.8,3.43ZM833.62,354.07c4.92,0,9.47-.88,13.66-2.65,4.18-1.77,7.79-4.29,10.81-7.57,3.02-3.28,5.37-7.14,7.05-11.58,1.68-4.44,2.52-9.3,2.52-14.56s-.84-10.25-2.52-14.69c-1.68-4.44-4.03-8.3-7.05-11.59-3.02-3.28-6.62-5.82-10.81-7.64-4.19-1.81-8.74-2.72-13.66-2.72s-9.47.9-13.66,2.72c-4.19,1.81-7.79,4.36-10.81,7.64-3.02,3.28-5.35,7.14-6.99,11.59-1.64,4.44-2.46,9.34-2.46,14.69s.82,10.12,2.46,14.56c1.64,4.44,3.97,8.31,6.99,11.58,3.02,3.28,6.62,5.81,10.81,7.57,4.18,1.77,8.74,2.65,13.66,2.65Z"/>
    <path class="cls-2" d="M897.82,362.74v-90.61h35.47c5.26,0,10.03,1.23,14.3,3.69,4.27,2.46,7.66,5.8,10.16,10.03,2.5,4.23,3.75,9.02,3.75,14.37,0,5-1.21,9.54-3.62,13.59-2.42,4.06-5.7,7.27-9.84,9.64-4.14,2.37-8.8,3.56-13.98,3.56h-26.15v35.72h-10.1ZM907.92,317.18h27.05c3.19,0,6-.73,8.41-2.2,2.41-1.47,4.31-3.47,5.7-6.02,1.38-2.54,2.07-5.46,2.07-8.74,0-3.54-.82-6.69-2.46-9.45-1.64-2.76-3.91-4.92-6.8-6.47-2.89-1.55-6.19-2.33-9.9-2.33h-24.08v35.21ZM953.09,362.74l-22.78-39.87,9.71-3.36,25.11,43.23h-12.04Z"/>
  </g>
  <g>
    <path class="cls-1" d="M77.8,226.74c-5.85,0-11.18-.72-16-2.16-4.82-1.44-9.09-3.55-12.83-6.35-3.74-2.79-7.09-6.16-10.06-10.12l12.69-14.44c4.41,6.12,8.8,10.28,13.16,12.49,4.36,2.21,9.11,3.31,14.24,3.31,2.79,0,5.29-.38,7.49-1.15,2.2-.76,3.94-1.87,5.2-3.31,1.26-1.44,1.89-3.15,1.89-5.13,0-1.44-.32-2.77-.95-3.98-.63-1.22-1.53-2.3-2.7-3.24-1.17-.95-2.56-1.8-4.18-2.57-1.62-.76-3.42-1.44-5.4-2.02-1.98-.58-4.14-1.06-6.48-1.42-5.04-1.17-9.45-2.59-13.23-4.25-3.78-1.67-6.93-3.73-9.45-6.21-2.52-2.47-4.39-5.29-5.6-8.44-1.21-3.15-1.82-6.7-1.82-10.67s.9-7.81,2.7-11.27c1.8-3.46,4.3-6.46,7.49-8.98,3.19-2.52,6.88-4.46,11.07-5.81,4.18-1.35,8.62-2.02,13.3-2.02,5.76,0,10.8.65,15.12,1.96,4.32,1.31,8.08,3.17,11.27,5.6,3.19,2.43,5.87,5.4,8.03,8.91l-12.83,12.42c-1.89-2.52-3.94-4.63-6.14-6.34-2.21-1.71-4.59-2.99-7.16-3.85-2.56-.85-5.2-1.28-7.9-1.28-2.97,0-5.54.38-7.69,1.15-2.16.77-3.85,1.87-5.06,3.31-1.22,1.44-1.82,3.2-1.82,5.26,0,1.62.41,3.06,1.21,4.32.81,1.26,1.98,2.36,3.51,3.31,1.53.95,3.38,1.78,5.54,2.5,2.16.72,4.54,1.35,7.15,1.89,4.95.99,9.4,2.29,13.37,3.92,3.96,1.62,7.36,3.58,10.19,5.87s5.02,5,6.55,8.1c1.53,3.11,2.29,6.59,2.29,10.46,0,6.39-1.53,11.83-4.59,16.33-3.06,4.5-7.29,7.94-12.69,10.33-5.4,2.38-11.7,3.58-18.9,3.58Z"/>
    <path class="cls-1" d="M121.14,225.39l36.99-94.5h18.09l36.86,94.5h-20.79l-19.04-50.89c-.54-1.44-1.19-3.29-1.96-5.54-.77-2.25-1.55-4.63-2.36-7.16-.81-2.52-1.58-4.93-2.29-7.22-.72-2.29-1.26-4.21-1.62-5.74l3.65-.13c-.54,2.07-1.15,4.21-1.82,6.41-.67,2.21-1.37,4.46-2.09,6.75-.72,2.29-1.49,4.52-2.29,6.68-.81,2.16-1.58,4.28-2.29,6.34l-19.04,50.49h-19.98ZM138.28,205.54l6.61-16.33h43.33l6.75,16.33h-56.7Z"/>
    <path class="cls-1" d="M226.3,225.39v-94.5h20.25v94.5h-20.25ZM235.62,149.11v-18.23h54.54v18.23h-54.54ZM235.62,187.86v-17.42h48.87v17.42h-48.87Z"/>
    <path class="cls-1" d="M303.79,189.75v-17.82h44.14v17.82h-44.14Z"/>
    <path class="cls-1" d="M386.95,225.39v-76.27h-27.54v-18.23h76.14v18.23h-28.35v76.27h-20.25Z"/>
  </g>
</svg>
